<mxfile host="Electron" modified="2023-10-28T13:21:51.378Z" agent="Mozilla/5.0 (Windows NT 10.0; Win64; x64) AppleWebKit/537.36 (KHTML, like Gecko) draw.io/22.0.2 Chrome/114.0.5735.289 Electron/25.8.4 Safari/537.36" version="22.0.2" etag="L_Q783f4Y-_Vd9z3Vd55" type="device">
  <diagram name="Página-1" id="6HP0USBoI_oJzqZ-c03K">
    <mxGraphModel dx="2026" dy="6133" grid="1" gridSize="10" guides="1" tooltips="1" connect="1" arrows="1" fold="1" page="1" pageScale="1" pageWidth="2336" pageHeight="1654" math="0" shadow="0">
      <root>
        <mxCell id="0" />
        <mxCell id="1" parent="0" />
        <mxCell id="6OBitSWHWfzF9lij0ILw-1" value="Vivero" style="whiteSpace=wrap;html=1;align=center;" parent="1" vertex="1">
          <mxGeometry x="217" y="-4610" width="120" height="60" as="geometry" />
        </mxCell>
        <mxCell id="6OBitSWHWfzF9lij0ILw-2" value="Asigna" style="shape=rhombus;perimeter=rhombusPerimeter;whiteSpace=wrap;html=1;align=center;" parent="1" vertex="1">
          <mxGeometry x="497" y="-4610" width="100" height="60" as="geometry" />
        </mxCell>
        <mxCell id="6OBitSWHWfzF9lij0ILw-5" value="" style="endArrow=none;html=1;rounded=0;exitX=1;exitY=0.5;exitDx=0;exitDy=0;entryX=0;entryY=0.5;entryDx=0;entryDy=0;" parent="1" source="6OBitSWHWfzF9lij0ILw-1" target="6OBitSWHWfzF9lij0ILw-2" edge="1">
          <mxGeometry width="50" height="50" relative="1" as="geometry">
            <mxPoint x="274" y="-4640" as="sourcePoint" />
            <mxPoint x="324" y="-4690" as="targetPoint" />
          </mxGeometry>
        </mxCell>
        <mxCell id="6OBitSWHWfzF9lij0ILw-6" value="" style="endArrow=none;html=1;rounded=0;exitX=1;exitY=0.5;exitDx=0;exitDy=0;" parent="1" source="6OBitSWHWfzF9lij0ILw-2" edge="1">
          <mxGeometry width="50" height="50" relative="1" as="geometry">
            <mxPoint x="634" y="-4650" as="sourcePoint" />
            <mxPoint x="754" y="-4580" as="targetPoint" />
          </mxGeometry>
        </mxCell>
        <mxCell id="6OBitSWHWfzF9lij0ILw-8" value="" style="triangle;whiteSpace=wrap;html=1;rotation=90;" parent="1" vertex="1">
          <mxGeometry x="709.5" y="-4489.25" width="35" height="67.5" as="geometry" />
        </mxCell>
        <mxCell id="6OBitSWHWfzF9lij0ILw-9" value="" style="endArrow=none;html=1;rounded=0;exitX=0;exitY=0.5;exitDx=0;exitDy=0;entryX=0.274;entryY=1;entryDx=0;entryDy=0;entryPerimeter=0;" parent="1" source="6OBitSWHWfzF9lij0ILw-8" edge="1">
          <mxGeometry width="50" height="50" relative="1" as="geometry">
            <mxPoint x="567" y="-4438" as="sourcePoint" />
            <mxPoint x="786.8800000000001" y="-4550" as="targetPoint" />
            <Array as="points">
              <mxPoint x="727" y="-4510" />
              <mxPoint x="787" y="-4510" />
            </Array>
          </mxGeometry>
        </mxCell>
        <mxCell id="6OBitSWHWfzF9lij0ILw-11" value="Almacén" style="whiteSpace=wrap;html=1;align=center;" parent="1" vertex="1">
          <mxGeometry x="587" y="-4378" width="100" height="40" as="geometry" />
        </mxCell>
        <mxCell id="6OBitSWHWfzF9lij0ILw-12" value="zona_exterior" style="whiteSpace=wrap;html=1;align=center;" parent="1" vertex="1">
          <mxGeometry x="774" y="-4378" width="100" height="40" as="geometry" />
        </mxCell>
        <mxCell id="6OBitSWHWfzF9lij0ILw-14" value="" style="endArrow=none;html=1;rounded=0;entryX=0.5;entryY=0;entryDx=0;entryDy=0;" parent="1" target="6OBitSWHWfzF9lij0ILw-12" edge="1">
          <mxGeometry width="50" height="50" relative="1" as="geometry">
            <mxPoint x="727" y="-4438" as="sourcePoint" />
            <mxPoint x="857" y="-4478" as="targetPoint" />
          </mxGeometry>
        </mxCell>
        <mxCell id="6OBitSWHWfzF9lij0ILw-15" value="" style="endArrow=none;html=1;rounded=0;exitX=0.5;exitY=0;exitDx=0;exitDy=0;" parent="1" source="6OBitSWHWfzF9lij0ILw-11" edge="1">
          <mxGeometry width="50" height="50" relative="1" as="geometry">
            <mxPoint x="707" y="-4368" as="sourcePoint" />
            <mxPoint x="727" y="-4438" as="targetPoint" />
          </mxGeometry>
        </mxCell>
        <mxCell id="6OBitSWHWfzF9lij0ILw-16" value="" style="shape=requiredInterface;html=1;verticalLabelPosition=bottom;sketch=0;rotation=90;" parent="1" vertex="1">
          <mxGeometry x="712" y="-4489.25" width="30" height="120" as="geometry" />
        </mxCell>
        <mxCell id="6OBitSWHWfzF9lij0ILw-17" value="tipo_zona" style="ellipse;whiteSpace=wrap;html=1;align=center;" parent="1" vertex="1">
          <mxGeometry x="827" y="-4470" width="60" height="29" as="geometry" />
        </mxCell>
        <mxCell id="6OBitSWHWfzF9lij0ILw-18" value="" style="endArrow=none;html=1;rounded=0;exitX=0.5;exitY=0;exitDx=0;exitDy=0;entryX=0;entryY=0.5;entryDx=0;entryDy=0;" parent="1" source="6OBitSWHWfzF9lij0ILw-8" target="6OBitSWHWfzF9lij0ILw-17" edge="1">
          <mxGeometry width="50" height="50" relative="1" as="geometry">
            <mxPoint x="847" y="-4508" as="sourcePoint" />
            <mxPoint x="897" y="-4558" as="targetPoint" />
          </mxGeometry>
        </mxCell>
        <mxCell id="6OBitSWHWfzF9lij0ILw-19" value="id_vivero" style="ellipse;whiteSpace=wrap;html=1;align=center;fontStyle=4;" parent="1" vertex="1">
          <mxGeometry x="50" y="-4498" width="90" height="40" as="geometry" />
        </mxCell>
        <mxCell id="6OBitSWHWfzF9lij0ILw-20" value="nombre_vivero" style="ellipse;whiteSpace=wrap;html=1;align=center;" parent="1" vertex="1">
          <mxGeometry x="20" y="-4620" width="100" height="40" as="geometry" />
        </mxCell>
        <mxCell id="6OBitSWHWfzF9lij0ILw-21" value="" style="endArrow=none;html=1;rounded=0;exitX=0.5;exitY=0;exitDx=0;exitDy=0;entryX=0;entryY=0.75;entryDx=0;entryDy=0;" parent="1" source="6OBitSWHWfzF9lij0ILw-19" target="6OBitSWHWfzF9lij0ILw-1" edge="1">
          <mxGeometry width="50" height="50" relative="1" as="geometry">
            <mxPoint x="164" y="-4620" as="sourcePoint" />
            <mxPoint x="214" y="-4670" as="targetPoint" />
          </mxGeometry>
        </mxCell>
        <mxCell id="6OBitSWHWfzF9lij0ILw-22" value="" style="endArrow=none;html=1;rounded=0;exitX=0;exitY=0.25;exitDx=0;exitDy=0;entryX=1;entryY=0.5;entryDx=0;entryDy=0;" parent="1" source="6OBitSWHWfzF9lij0ILw-1" target="6OBitSWHWfzF9lij0ILw-20" edge="1">
          <mxGeometry width="50" height="50" relative="1" as="geometry">
            <mxPoint x="174" y="-4620" as="sourcePoint" />
            <mxPoint x="224" y="-4670" as="targetPoint" />
          </mxGeometry>
        </mxCell>
        <mxCell id="6OBitSWHWfzF9lij0ILw-28" value="id_zona" style="ellipse;whiteSpace=wrap;html=1;align=center;fontStyle=4;" parent="1" vertex="1">
          <mxGeometry x="769" y="-4710" width="90" height="40" as="geometry" />
        </mxCell>
        <mxCell id="6OBitSWHWfzF9lij0ILw-29" value="nombre_zona" style="ellipse;whiteSpace=wrap;html=1;align=center;" parent="1" vertex="1">
          <mxGeometry x="914" y="-4680" width="116" height="40" as="geometry" />
        </mxCell>
        <mxCell id="6OBitSWHWfzF9lij0ILw-30" value="" style="endArrow=none;html=1;rounded=0;exitX=0.5;exitY=1;exitDx=0;exitDy=0;" parent="1" source="6OBitSWHWfzF9lij0ILw-28" edge="1">
          <mxGeometry width="50" height="50" relative="1" as="geometry">
            <mxPoint x="794" y="-4650" as="sourcePoint" />
            <mxPoint x="814" y="-4610" as="targetPoint" />
          </mxGeometry>
        </mxCell>
        <mxCell id="6OBitSWHWfzF9lij0ILw-31" value="" style="endArrow=none;html=1;rounded=0;entryX=0;entryY=1;entryDx=0;entryDy=0;exitX=1;exitY=0.25;exitDx=0;exitDy=0;" parent="1" target="6OBitSWHWfzF9lij0ILw-29" edge="1">
          <mxGeometry width="50" height="50" relative="1" as="geometry">
            <mxPoint x="874" y="-4595" as="sourcePoint" />
            <mxPoint x="834" y="-4640" as="targetPoint" />
          </mxGeometry>
        </mxCell>
        <mxCell id="6OBitSWHWfzF9lij0ILw-33" value="coordenadas_vivero" style="ellipse;whiteSpace=wrap;html=1;align=center;" parent="1" vertex="1">
          <mxGeometry x="230" y="-4740" width="140" height="40" as="geometry" />
        </mxCell>
        <mxCell id="6OBitSWHWfzF9lij0ILw-36" value="latitud_vivero" style="ellipse;whiteSpace=wrap;html=1;align=center;" parent="1" vertex="1">
          <mxGeometry x="170" y="-4830" width="100" height="40" as="geometry" />
        </mxCell>
        <mxCell id="6OBitSWHWfzF9lij0ILw-37" value="longitud_vivero" style="ellipse;whiteSpace=wrap;html=1;align=center;" parent="1" vertex="1">
          <mxGeometry x="350" y="-4830" width="100" height="40" as="geometry" />
        </mxCell>
        <mxCell id="6OBitSWHWfzF9lij0ILw-38" value="" style="endArrow=none;html=1;rounded=0;entryX=0.5;entryY=1;entryDx=0;entryDy=0;exitX=0;exitY=0;exitDx=0;exitDy=0;" parent="1" source="6OBitSWHWfzF9lij0ILw-33" target="6OBitSWHWfzF9lij0ILw-36" edge="1">
          <mxGeometry width="50" height="50" relative="1" as="geometry">
            <mxPoint x="-13" y="-4740" as="sourcePoint" />
            <mxPoint x="37" y="-4790" as="targetPoint" />
          </mxGeometry>
        </mxCell>
        <mxCell id="6OBitSWHWfzF9lij0ILw-39" value="" style="endArrow=none;html=1;rounded=0;entryX=0.5;entryY=1;entryDx=0;entryDy=0;exitX=1;exitY=0;exitDx=0;exitDy=0;" parent="1" source="6OBitSWHWfzF9lij0ILw-33" target="6OBitSWHWfzF9lij0ILw-37" edge="1">
          <mxGeometry width="50" height="50" relative="1" as="geometry">
            <mxPoint x="227" y="-4750" as="sourcePoint" />
            <mxPoint x="277" y="-4800" as="targetPoint" />
          </mxGeometry>
        </mxCell>
        <mxCell id="YVEO-Afh5kTJENKMoZ6W-5" style="edgeStyle=orthogonalEdgeStyle;rounded=0;orthogonalLoop=1;jettySize=auto;html=1;exitX=0.5;exitY=1;exitDx=0;exitDy=0;entryX=0.5;entryY=0;entryDx=0;entryDy=0;" parent="1" source="6OBitSWHWfzF9lij0ILw-40" target="6OBitSWHWfzF9lij0ILw-59" edge="1">
          <mxGeometry relative="1" as="geometry" />
        </mxCell>
        <mxCell id="YVEO-Afh5kTJENKMoZ6W-6" value="Controlado por" style="edgeLabel;html=1;align=center;verticalAlign=middle;resizable=0;points=[];" parent="YVEO-Afh5kTJENKMoZ6W-5" vertex="1" connectable="0">
          <mxGeometry x="-0.0973" y="1" relative="1" as="geometry">
            <mxPoint as="offset" />
          </mxGeometry>
        </mxCell>
        <mxCell id="6OBitSWHWfzF9lij0ILw-40" value="Empleado" style="whiteSpace=wrap;html=1;align=center;" parent="1" vertex="1">
          <mxGeometry x="1328.5" y="-4610" width="117" height="60" as="geometry" />
        </mxCell>
        <mxCell id="6OBitSWHWfzF9lij0ILw-41" value="Productividad" style="shape=rhombus;perimeter=rhombusPerimeter;whiteSpace=wrap;html=1;align=center;" parent="1" vertex="1">
          <mxGeometry x="1064" y="-4610" width="100" height="60" as="geometry" />
        </mxCell>
        <mxCell id="6OBitSWHWfzF9lij0ILw-42" value="" style="endArrow=none;html=1;rounded=0;entryX=0;entryY=0.5;entryDx=0;entryDy=0;" parent="1" target="6OBitSWHWfzF9lij0ILw-41" edge="1">
          <mxGeometry width="50" height="50" relative="1" as="geometry">
            <mxPoint x="874" y="-4580" as="sourcePoint" />
            <mxPoint x="1004" y="-4580" as="targetPoint" />
          </mxGeometry>
        </mxCell>
        <mxCell id="YVEO-Afh5kTJENKMoZ6W-56" value="Realiza tarea en" style="edgeLabel;html=1;align=center;verticalAlign=middle;resizable=0;points=[];" parent="6OBitSWHWfzF9lij0ILw-42" vertex="1" connectable="0">
          <mxGeometry x="-0.0632" y="1" relative="1" as="geometry">
            <mxPoint as="offset" />
          </mxGeometry>
        </mxCell>
        <mxCell id="6OBitSWHWfzF9lij0ILw-43" value="" style="endArrow=none;html=1;rounded=0;exitX=1;exitY=0.5;exitDx=0;exitDy=0;entryX=0;entryY=0.5;entryDx=0;entryDy=0;" parent="1" source="6OBitSWHWfzF9lij0ILw-41" target="6OBitSWHWfzF9lij0ILw-40" edge="1">
          <mxGeometry width="50" height="50" relative="1" as="geometry">
            <mxPoint x="1104" y="-4490" as="sourcePoint" />
            <mxPoint x="1154" y="-4540" as="targetPoint" />
          </mxGeometry>
        </mxCell>
        <mxCell id="YVEO-Afh5kTJENKMoZ6W-60" value="Operada por" style="edgeLabel;html=1;align=center;verticalAlign=middle;resizable=0;points=[];" parent="6OBitSWHWfzF9lij0ILw-43" vertex="1" connectable="0">
          <mxGeometry x="-0.0128" y="-2" relative="1" as="geometry">
            <mxPoint as="offset" />
          </mxGeometry>
        </mxCell>
        <mxCell id="6OBitSWHWfzF9lij0ILw-44" value="dni_empleado" style="ellipse;whiteSpace=wrap;html=1;align=center;fontStyle=4;" parent="1" vertex="1">
          <mxGeometry x="1342" y="-4710" width="90" height="40" as="geometry" />
        </mxCell>
        <mxCell id="6OBitSWHWfzF9lij0ILw-45" value="nombre_empleado" style="ellipse;whiteSpace=wrap;html=1;align=center;" parent="1" vertex="1">
          <mxGeometry x="1484" y="-4680" width="146" height="40" as="geometry" />
        </mxCell>
        <mxCell id="6OBitSWHWfzF9lij0ILw-46" value="" style="endArrow=none;html=1;rounded=0;exitX=0.5;exitY=1;exitDx=0;exitDy=0;entryX=0.5;entryY=0;entryDx=0;entryDy=0;" parent="1" source="6OBitSWHWfzF9lij0ILw-44" target="6OBitSWHWfzF9lij0ILw-40" edge="1">
          <mxGeometry width="50" height="50" relative="1" as="geometry">
            <mxPoint x="1369" y="-4650" as="sourcePoint" />
            <mxPoint x="1389" y="-4610" as="targetPoint" />
          </mxGeometry>
        </mxCell>
        <mxCell id="6OBitSWHWfzF9lij0ILw-47" value="" style="endArrow=none;html=1;rounded=0;entryX=0;entryY=1;entryDx=0;entryDy=0;exitX=0.75;exitY=0;exitDx=0;exitDy=0;" parent="1" source="6OBitSWHWfzF9lij0ILw-40" target="6OBitSWHWfzF9lij0ILw-45" edge="1">
          <mxGeometry width="50" height="50" relative="1" as="geometry">
            <mxPoint x="1449" y="-4595" as="sourcePoint" />
            <mxPoint x="1409" y="-4640" as="targetPoint" />
          </mxGeometry>
        </mxCell>
        <mxCell id="6OBitSWHWfzF9lij0ILw-49" value="" style="endArrow=none;html=1;rounded=0;entryX=0;entryY=0.5;entryDx=0;entryDy=0;exitX=1;exitY=0.5;exitDx=0;exitDy=0;" parent="1" source="6OBitSWHWfzF9lij0ILw-40" target="6OBitSWHWfzF9lij0ILw-50" edge="1">
          <mxGeometry width="50" height="50" relative="1" as="geometry">
            <mxPoint x="1454" y="-4585" as="sourcePoint" />
            <mxPoint x="1497.3328051985777" y="-4514.209638692946" as="targetPoint" />
          </mxGeometry>
        </mxCell>
        <mxCell id="6OBitSWHWfzF9lij0ILw-50" value="tareas" style="ellipse;shape=doubleEllipse;margin=3;whiteSpace=wrap;html=1;align=center;" parent="1" vertex="1">
          <mxGeometry x="1484" y="-4600" width="90" height="40" as="geometry" />
        </mxCell>
        <mxCell id="6OBitSWHWfzF9lij0ILw-51" value="productividad" style="ellipse;whiteSpace=wrap;html=1;align=center;" parent="1" vertex="1">
          <mxGeometry x="1484" y="-4520" width="90" height="40" as="geometry" />
        </mxCell>
        <mxCell id="6OBitSWHWfzF9lij0ILw-52" value="" style="endArrow=none;html=1;rounded=0;entryX=0;entryY=0.5;entryDx=0;entryDy=0;exitX=0.75;exitY=1;exitDx=0;exitDy=0;" parent="1" source="6OBitSWHWfzF9lij0ILw-40" target="6OBitSWHWfzF9lij0ILw-51" edge="1">
          <mxGeometry width="50" height="50" relative="1" as="geometry">
            <mxPoint x="1401" y="-4484" as="sourcePoint" />
            <mxPoint x="1484" y="-4520" as="targetPoint" />
          </mxGeometry>
        </mxCell>
        <mxCell id="6OBitSWHWfzF9lij0ILw-58" value="Producto" style="whiteSpace=wrap;html=1;align=center;" parent="1" vertex="1">
          <mxGeometry x="1328.5" y="-4168" width="120" height="60" as="geometry" />
        </mxCell>
        <mxCell id="6OBitSWHWfzF9lij0ILw-59" value="Pedido" style="shape=rhombus;perimeter=rhombusPerimeter;whiteSpace=wrap;html=1;align=center;" parent="1" vertex="1">
          <mxGeometry x="1338" y="-4429.25" width="98" height="60" as="geometry" />
        </mxCell>
        <mxCell id="6OBitSWHWfzF9lij0ILw-62" value="" style="endArrow=none;html=1;rounded=0;entryX=0.5;entryY=1;entryDx=0;entryDy=0;exitX=0.5;exitY=0;exitDx=0;exitDy=0;" parent="1" source="6OBitSWHWfzF9lij0ILw-58" target="6OBitSWHWfzF9lij0ILw-59" edge="1">
          <mxGeometry width="50" height="50" relative="1" as="geometry">
            <mxPoint x="1217" y="-4228" as="sourcePoint" />
            <mxPoint x="1267" y="-4278" as="targetPoint" />
          </mxGeometry>
        </mxCell>
        <mxCell id="YVEO-Afh5kTJENKMoZ6W-1" value="Esta formado por" style="edgeLabel;html=1;align=center;verticalAlign=middle;resizable=0;points=[];" parent="6OBitSWHWfzF9lij0ILw-62" vertex="1" connectable="0">
          <mxGeometry x="-0.1191" y="-2" relative="1" as="geometry">
            <mxPoint x="-2" y="-43" as="offset" />
          </mxGeometry>
        </mxCell>
        <mxCell id="6OBitSWHWfzF9lij0ILw-63" value="Cliente" style="whiteSpace=wrap;html=1;align=center;" parent="1" vertex="1">
          <mxGeometry x="1787" y="-4168" width="120" height="60" as="geometry" />
        </mxCell>
        <mxCell id="6OBitSWHWfzF9lij0ILw-98" value="dni_plus" style="ellipse;whiteSpace=wrap;html=1;align=center;fontStyle=4;" parent="1" vertex="1">
          <mxGeometry x="1619" y="-4510" width="88" height="40" as="geometry" />
        </mxCell>
        <mxCell id="6OBitSWHWfzF9lij0ILw-99" value="nombre" style="ellipse;whiteSpace=wrap;html=1;align=center;" parent="1" vertex="1">
          <mxGeometry x="1747" y="-4498" width="100" height="40" as="geometry" />
        </mxCell>
        <mxCell id="6OBitSWHWfzF9lij0ILw-102" value="fecha_ingreso" style="ellipse;whiteSpace=wrap;html=1;align=center;" parent="1" vertex="1">
          <mxGeometry x="1817" y="-4419.25" width="100" height="40" as="geometry" />
        </mxCell>
        <mxCell id="6OBitSWHWfzF9lij0ILw-103" value="Cliente Plus" style="whiteSpace=wrap;html=1;align=center;" parent="1" vertex="1">
          <mxGeometry x="1637" y="-4429.25" width="120" height="60" as="geometry" />
        </mxCell>
        <mxCell id="YVEO-Afh5kTJENKMoZ6W-3" value="" style="endArrow=none;html=1;rounded=0;exitX=1;exitY=0.5;exitDx=0;exitDy=0;entryX=0;entryY=0.5;entryDx=0;entryDy=0;" parent="1" source="6OBitSWHWfzF9lij0ILw-59" target="6OBitSWHWfzF9lij0ILw-103" edge="1">
          <mxGeometry width="50" height="50" relative="1" as="geometry">
            <mxPoint x="1597" y="-4368" as="sourcePoint" />
            <mxPoint x="1647" y="-4418" as="targetPoint" />
          </mxGeometry>
        </mxCell>
        <mxCell id="YVEO-Afh5kTJENKMoZ6W-4" value="Es pedido por" style="edgeLabel;html=1;align=center;verticalAlign=middle;resizable=0;points=[];" parent="YVEO-Afh5kTJENKMoZ6W-3" vertex="1" connectable="0">
          <mxGeometry x="-0.2637" y="3" relative="1" as="geometry">
            <mxPoint x="27" y="3" as="offset" />
          </mxGeometry>
        </mxCell>
        <mxCell id="YVEO-Afh5kTJENKMoZ6W-7" value="volumen_compra" style="ellipse;shape=doubleEllipse;margin=3;whiteSpace=wrap;html=1;align=center;" parent="1" vertex="1">
          <mxGeometry x="1567" y="-4335.5" width="140" height="50" as="geometry" />
        </mxCell>
        <mxCell id="YVEO-Afh5kTJENKMoZ6W-8" value="pedidos_realizados" style="ellipse;shape=doubleEllipse;margin=3;whiteSpace=wrap;html=1;align=center;" parent="1" vertex="1">
          <mxGeometry x="1767" y="-4335.5" width="130" height="45" as="geometry" />
        </mxCell>
        <mxCell id="YVEO-Afh5kTJENKMoZ6W-9" value="" style="endArrow=none;html=1;rounded=0;entryX=0.5;entryY=1;entryDx=0;entryDy=0;exitX=0.25;exitY=0;exitDx=0;exitDy=0;" parent="1" source="6OBitSWHWfzF9lij0ILw-103" target="6OBitSWHWfzF9lij0ILw-98" edge="1">
          <mxGeometry width="50" height="50" relative="1" as="geometry">
            <mxPoint x="1587" y="-4408" as="sourcePoint" />
            <mxPoint x="1637" y="-4458" as="targetPoint" />
          </mxGeometry>
        </mxCell>
        <mxCell id="YVEO-Afh5kTJENKMoZ6W-10" value="" style="endArrow=none;html=1;rounded=0;entryX=0;entryY=1;entryDx=0;entryDy=0;exitX=0.75;exitY=0;exitDx=0;exitDy=0;" parent="1" source="6OBitSWHWfzF9lij0ILw-103" target="6OBitSWHWfzF9lij0ILw-99" edge="1">
          <mxGeometry width="50" height="50" relative="1" as="geometry">
            <mxPoint x="1677" y="-4418" as="sourcePoint" />
            <mxPoint x="1727" y="-4468" as="targetPoint" />
          </mxGeometry>
        </mxCell>
        <mxCell id="YVEO-Afh5kTJENKMoZ6W-11" value="" style="endArrow=none;html=1;rounded=0;exitX=1;exitY=0.5;exitDx=0;exitDy=0;entryX=0;entryY=0.5;entryDx=0;entryDy=0;" parent="1" source="6OBitSWHWfzF9lij0ILw-103" target="6OBitSWHWfzF9lij0ILw-102" edge="1">
          <mxGeometry width="50" height="50" relative="1" as="geometry">
            <mxPoint x="1787" y="-4408" as="sourcePoint" />
            <mxPoint x="1837" y="-4458" as="targetPoint" />
          </mxGeometry>
        </mxCell>
        <mxCell id="YVEO-Afh5kTJENKMoZ6W-12" value="" style="endArrow=none;html=1;rounded=0;entryX=0.75;entryY=1;entryDx=0;entryDy=0;exitX=0.5;exitY=0;exitDx=0;exitDy=0;" parent="1" source="YVEO-Afh5kTJENKMoZ6W-8" target="6OBitSWHWfzF9lij0ILw-103" edge="1">
          <mxGeometry width="50" height="50" relative="1" as="geometry">
            <mxPoint x="1687" y="-4298" as="sourcePoint" />
            <mxPoint x="1737" y="-4348" as="targetPoint" />
          </mxGeometry>
        </mxCell>
        <mxCell id="YVEO-Afh5kTJENKMoZ6W-13" value="" style="endArrow=none;html=1;rounded=0;exitX=0.5;exitY=0;exitDx=0;exitDy=0;entryX=0.25;entryY=1;entryDx=0;entryDy=0;" parent="1" source="YVEO-Afh5kTJENKMoZ6W-7" target="6OBitSWHWfzF9lij0ILw-103" edge="1">
          <mxGeometry width="50" height="50" relative="1" as="geometry">
            <mxPoint x="1497" y="-4318" as="sourcePoint" />
            <mxPoint x="1547" y="-4368" as="targetPoint" />
          </mxGeometry>
        </mxCell>
        <mxCell id="YVEO-Afh5kTJENKMoZ6W-14" value="Compra" style="shape=rhombus;perimeter=rhombusPerimeter;whiteSpace=wrap;html=1;align=center;" parent="1" vertex="1">
          <mxGeometry x="1547" y="-4168" width="98" height="60" as="geometry" />
        </mxCell>
        <mxCell id="YVEO-Afh5kTJENKMoZ6W-16" value="" style="endArrow=none;html=1;rounded=0;exitX=1;exitY=0.5;exitDx=0;exitDy=0;entryX=0;entryY=0.5;entryDx=0;entryDy=0;" parent="1" source="YVEO-Afh5kTJENKMoZ6W-14" target="6OBitSWHWfzF9lij0ILw-63" edge="1">
          <mxGeometry width="50" height="50" relative="1" as="geometry">
            <mxPoint x="1657" y="-4198" as="sourcePoint" />
            <mxPoint x="1707" y="-4248" as="targetPoint" />
          </mxGeometry>
        </mxCell>
        <mxCell id="YVEO-Afh5kTJENKMoZ6W-84" value="Es comprado por" style="edgeLabel;html=1;align=center;verticalAlign=middle;resizable=0;points=[];" parent="YVEO-Afh5kTJENKMoZ6W-16" vertex="1" connectable="0">
          <mxGeometry x="-0.1139" y="-1" relative="1" as="geometry">
            <mxPoint x="4" y="-1" as="offset" />
          </mxGeometry>
        </mxCell>
        <mxCell id="YVEO-Afh5kTJENKMoZ6W-23" value="" style="endArrow=none;html=1;rounded=0;exitX=1;exitY=0.5;exitDx=0;exitDy=0;entryX=0;entryY=0.5;entryDx=0;entryDy=0;" parent="1" source="6OBitSWHWfzF9lij0ILw-58" target="YVEO-Afh5kTJENKMoZ6W-14" edge="1">
          <mxGeometry width="50" height="50" relative="1" as="geometry">
            <mxPoint x="1557" y="-4158" as="sourcePoint" />
            <mxPoint x="1607" y="-4208" as="targetPoint" />
          </mxGeometry>
        </mxCell>
        <mxCell id="YVEO-Afh5kTJENKMoZ6W-81" value="Text" style="edgeLabel;html=1;align=center;verticalAlign=middle;resizable=0;points=[];" parent="YVEO-Afh5kTJENKMoZ6W-23" vertex="1" connectable="0">
          <mxGeometry x="-0.0455" relative="1" as="geometry">
            <mxPoint as="offset" />
          </mxGeometry>
        </mxCell>
        <mxCell id="YVEO-Afh5kTJENKMoZ6W-82" value="Compra" style="edgeLabel;html=1;align=center;verticalAlign=middle;resizable=0;points=[];" parent="YVEO-Afh5kTJENKMoZ6W-23" vertex="1" connectable="0">
          <mxGeometry x="0.051" relative="1" as="geometry">
            <mxPoint as="offset" />
          </mxGeometry>
        </mxCell>
        <mxCell id="YVEO-Afh5kTJENKMoZ6W-24" value="dni" style="ellipse;whiteSpace=wrap;html=1;align=center;fontStyle=4;" parent="1" vertex="1">
          <mxGeometry x="1947" y="-4228" width="88" height="40" as="geometry" />
        </mxCell>
        <mxCell id="YVEO-Afh5kTJENKMoZ6W-26" value="" style="endArrow=none;html=1;rounded=0;exitX=1;exitY=0.25;exitDx=0;exitDy=0;entryX=0;entryY=0.5;entryDx=0;entryDy=0;" parent="1" source="6OBitSWHWfzF9lij0ILw-63" target="YVEO-Afh5kTJENKMoZ6W-24" edge="1">
          <mxGeometry width="50" height="50" relative="1" as="geometry">
            <mxPoint x="2007" y="-4078" as="sourcePoint" />
            <mxPoint x="2057" y="-4128" as="targetPoint" />
          </mxGeometry>
        </mxCell>
        <mxCell id="YVEO-Afh5kTJENKMoZ6W-27" value="nombre" style="ellipse;whiteSpace=wrap;html=1;align=center;" parent="1" vertex="1">
          <mxGeometry x="1947" y="-4088" width="86" height="40" as="geometry" />
        </mxCell>
        <mxCell id="YVEO-Afh5kTJENKMoZ6W-28" value="" style="endArrow=none;html=1;rounded=0;exitX=1;exitY=0.75;exitDx=0;exitDy=0;entryX=0;entryY=0.5;entryDx=0;entryDy=0;" parent="1" source="6OBitSWHWfzF9lij0ILw-63" target="YVEO-Afh5kTJENKMoZ6W-27" edge="1">
          <mxGeometry width="50" height="50" relative="1" as="geometry">
            <mxPoint x="1927" y="-4143" as="sourcePoint" />
            <mxPoint x="2021" y="-4178" as="targetPoint" />
          </mxGeometry>
        </mxCell>
        <mxCell id="YVEO-Afh5kTJENKMoZ6W-34" style="edgeStyle=orthogonalEdgeStyle;rounded=0;orthogonalLoop=1;jettySize=auto;html=1;entryX=0.25;entryY=0;entryDx=0;entryDy=0;" parent="1" source="YVEO-Afh5kTJENKMoZ6W-29" target="6OBitSWHWfzF9lij0ILw-58" edge="1">
          <mxGeometry relative="1" as="geometry">
            <mxPoint x="1370" y="-4180" as="targetPoint" />
            <Array as="points">
              <mxPoint x="1255" y="-4313" />
              <mxPoint x="1255" y="-4210" />
              <mxPoint x="1359" y="-4210" />
            </Array>
          </mxGeometry>
        </mxCell>
        <mxCell id="YVEO-Afh5kTJENKMoZ6W-73" value="Expone" style="edgeLabel;html=1;align=center;verticalAlign=middle;resizable=0;points=[];" parent="YVEO-Afh5kTJENKMoZ6W-34" vertex="1" connectable="0">
          <mxGeometry x="0.0162" y="3" relative="1" as="geometry">
            <mxPoint x="-1" y="-18" as="offset" />
          </mxGeometry>
        </mxCell>
        <mxCell id="YVEO-Afh5kTJENKMoZ6W-29" value="Posee" style="shape=rhombus;perimeter=rhombusPerimeter;whiteSpace=wrap;html=1;align=center;" parent="1" vertex="1">
          <mxGeometry x="1064" y="-4343" width="100" height="60" as="geometry" />
        </mxCell>
        <mxCell id="YVEO-Afh5kTJENKMoZ6W-33" value="" style="endArrow=none;html=1;rounded=0;entryX=0.75;entryY=1;entryDx=0;entryDy=0;exitX=0;exitY=0.5;exitDx=0;exitDy=0;" parent="1" source="YVEO-Afh5kTJENKMoZ6W-29" edge="1">
          <mxGeometry width="50" height="50" relative="1" as="geometry">
            <mxPoint x="987" y="-4318" as="sourcePoint" />
            <mxPoint x="844" y="-4550" as="targetPoint" />
            <Array as="points">
              <mxPoint x="987" y="-4313" />
              <mxPoint x="987" y="-4508" />
              <mxPoint x="844" y="-4508" />
            </Array>
          </mxGeometry>
        </mxCell>
        <mxCell id="YVEO-Afh5kTJENKMoZ6W-72" value="Asignado a" style="edgeLabel;html=1;align=center;verticalAlign=middle;resizable=0;points=[];" parent="YVEO-Afh5kTJENKMoZ6W-33" vertex="1" connectable="0">
          <mxGeometry x="-0.2035" y="1" relative="1" as="geometry">
            <mxPoint as="offset" />
          </mxGeometry>
        </mxCell>
        <mxCell id="YVEO-Afh5kTJENKMoZ6W-36" value="" style="triangle;whiteSpace=wrap;html=1;rotation=90;" parent="1" vertex="1">
          <mxGeometry x="1369.5" y="-4047.25" width="35" height="67.5" as="geometry" />
        </mxCell>
        <mxCell id="YVEO-Afh5kTJENKMoZ6W-38" value="Plantas" style="whiteSpace=wrap;html=1;align=center;" parent="1" vertex="1">
          <mxGeometry x="1187" y="-3936" width="100" height="40" as="geometry" />
        </mxCell>
        <mxCell id="YVEO-Afh5kTJENKMoZ6W-39" value="Jardinería" style="whiteSpace=wrap;html=1;align=center;" parent="1" vertex="1">
          <mxGeometry x="1337" y="-3936" width="100" height="40" as="geometry" />
        </mxCell>
        <mxCell id="YVEO-Afh5kTJENKMoZ6W-40" value="" style="endArrow=none;html=1;rounded=0;entryX=0.5;entryY=0;entryDx=0;entryDy=0;" parent="1" target="YVEO-Afh5kTJENKMoZ6W-39" edge="1">
          <mxGeometry width="50" height="50" relative="1" as="geometry">
            <mxPoint x="1387" y="-3996" as="sourcePoint" />
            <mxPoint x="1517" y="-4036" as="targetPoint" />
          </mxGeometry>
        </mxCell>
        <mxCell id="YVEO-Afh5kTJENKMoZ6W-41" value="" style="endArrow=none;html=1;rounded=0;exitX=0.5;exitY=0;exitDx=0;exitDy=0;" parent="1" source="YVEO-Afh5kTJENKMoZ6W-38" edge="1">
          <mxGeometry width="50" height="50" relative="1" as="geometry">
            <mxPoint x="1367" y="-3926" as="sourcePoint" />
            <mxPoint x="1387" y="-3996" as="targetPoint" />
          </mxGeometry>
        </mxCell>
        <mxCell id="YVEO-Afh5kTJENKMoZ6W-42" value="" style="shape=requiredInterface;html=1;verticalLabelPosition=bottom;sketch=0;rotation=90;" parent="1" vertex="1">
          <mxGeometry x="1372" y="-4048" width="30" height="120" as="geometry" />
        </mxCell>
        <mxCell id="YVEO-Afh5kTJENKMoZ6W-43" value="tipo_producto" style="ellipse;whiteSpace=wrap;html=1;align=center;" parent="1" vertex="1">
          <mxGeometry x="1487" y="-4028" width="103" height="29" as="geometry" />
        </mxCell>
        <mxCell id="YVEO-Afh5kTJENKMoZ6W-44" value="" style="endArrow=none;html=1;rounded=0;exitX=0.5;exitY=0;exitDx=0;exitDy=0;entryX=0;entryY=0.5;entryDx=0;entryDy=0;" parent="1" source="YVEO-Afh5kTJENKMoZ6W-36" target="YVEO-Afh5kTJENKMoZ6W-43" edge="1">
          <mxGeometry width="50" height="50" relative="1" as="geometry">
            <mxPoint x="1507" y="-4066" as="sourcePoint" />
            <mxPoint x="1557" y="-4116" as="targetPoint" />
          </mxGeometry>
        </mxCell>
        <mxCell id="YVEO-Afh5kTJENKMoZ6W-45" value="" style="endArrow=none;html=1;rounded=0;entryX=0.5;entryY=1;entryDx=0;entryDy=0;exitX=0;exitY=0.5;exitDx=0;exitDy=0;" parent="1" source="YVEO-Afh5kTJENKMoZ6W-36" target="6OBitSWHWfzF9lij0ILw-58" edge="1">
          <mxGeometry width="50" height="50" relative="1" as="geometry">
            <mxPoint x="1267" y="-4038" as="sourcePoint" />
            <mxPoint x="1317" y="-4088" as="targetPoint" />
          </mxGeometry>
        </mxCell>
        <mxCell id="YVEO-Afh5kTJENKMoZ6W-46" value="Decoración" style="whiteSpace=wrap;html=1;align=center;" parent="1" vertex="1">
          <mxGeometry x="1487" y="-3936" width="100" height="40" as="geometry" />
        </mxCell>
        <mxCell id="YVEO-Afh5kTJENKMoZ6W-47" value="" style="endArrow=none;html=1;rounded=0;exitX=1;exitY=0.5;exitDx=0;exitDy=0;entryX=0.5;entryY=0;entryDx=0;entryDy=0;" parent="1" source="YVEO-Afh5kTJENKMoZ6W-36" target="YVEO-Afh5kTJENKMoZ6W-46" edge="1">
          <mxGeometry width="50" height="50" relative="1" as="geometry">
            <mxPoint x="1437" y="-3978" as="sourcePoint" />
            <mxPoint x="1587" y="-3968" as="targetPoint" />
          </mxGeometry>
        </mxCell>
        <mxCell id="YVEO-Afh5kTJENKMoZ6W-48" value="numero_plantas" style="ellipse;whiteSpace=wrap;html=1;align=center;" parent="1" vertex="1">
          <mxGeometry x="1183.5" y="-3840" width="107" height="40" as="geometry" />
        </mxCell>
        <mxCell id="YVEO-Afh5kTJENKMoZ6W-49" value="" style="endArrow=none;html=1;rounded=0;entryX=0.5;entryY=1;entryDx=0;entryDy=0;exitX=0.5;exitY=0;exitDx=0;exitDy=0;" parent="1" source="YVEO-Afh5kTJENKMoZ6W-48" target="YVEO-Afh5kTJENKMoZ6W-38" edge="1">
          <mxGeometry width="50" height="50" relative="1" as="geometry">
            <mxPoint x="1117" y="-3830" as="sourcePoint" />
            <mxPoint x="1167" y="-3880" as="targetPoint" />
          </mxGeometry>
        </mxCell>
        <mxCell id="YVEO-Afh5kTJENKMoZ6W-50" value="numero_maceras" style="ellipse;whiteSpace=wrap;html=1;align=center;" parent="1" vertex="1">
          <mxGeometry x="1320.5" y="-3840" width="133" height="40" as="geometry" />
        </mxCell>
        <mxCell id="YVEO-Afh5kTJENKMoZ6W-51" value="" style="endArrow=none;html=1;rounded=0;entryX=0.5;entryY=1;entryDx=0;entryDy=0;exitX=0.5;exitY=0;exitDx=0;exitDy=0;" parent="1" source="YVEO-Afh5kTJENKMoZ6W-50" edge="1">
          <mxGeometry width="50" height="50" relative="1" as="geometry">
            <mxPoint x="1267" y="-3830" as="sourcePoint" />
            <mxPoint x="1387" y="-3896" as="targetPoint" />
          </mxGeometry>
        </mxCell>
        <mxCell id="YVEO-Afh5kTJENKMoZ6W-52" value="numero_decoracion" style="ellipse;whiteSpace=wrap;html=1;align=center;" parent="1" vertex="1">
          <mxGeometry x="1470.5" y="-3840" width="133" height="40" as="geometry" />
        </mxCell>
        <mxCell id="YVEO-Afh5kTJENKMoZ6W-53" value="" style="endArrow=none;html=1;rounded=0;entryX=0.5;entryY=1;entryDx=0;entryDy=0;exitX=0.5;exitY=0;exitDx=0;exitDy=0;" parent="1" source="YVEO-Afh5kTJENKMoZ6W-52" edge="1">
          <mxGeometry width="50" height="50" relative="1" as="geometry">
            <mxPoint x="1417" y="-3830" as="sourcePoint" />
            <mxPoint x="1537" y="-3896" as="targetPoint" />
          </mxGeometry>
        </mxCell>
        <mxCell id="YVEO-Afh5kTJENKMoZ6W-54" value="(1,N)" style="text;html=1;strokeColor=none;fillColor=none;align=center;verticalAlign=middle;whiteSpace=wrap;rounded=0;" parent="1" vertex="1">
          <mxGeometry x="407" y="-4610" width="30" height="30" as="geometry" />
        </mxCell>
        <mxCell id="YVEO-Afh5kTJENKMoZ6W-55" value="(1,N)" style="text;html=1;strokeColor=none;fillColor=none;align=center;verticalAlign=middle;whiteSpace=wrap;rounded=0;" parent="1" vertex="1">
          <mxGeometry x="657" y="-4610" width="30" height="30" as="geometry" />
        </mxCell>
        <mxCell id="YVEO-Afh5kTJENKMoZ6W-58" value="(1,1)" style="text;html=1;strokeColor=none;fillColor=none;align=center;verticalAlign=middle;whiteSpace=wrap;rounded=0;" parent="1" vertex="1">
          <mxGeometry x="944" y="-4620" width="30" height="30" as="geometry" />
        </mxCell>
        <mxCell id="YVEO-Afh5kTJENKMoZ6W-59" value="(1,N)" style="text;html=1;strokeColor=none;fillColor=none;align=center;verticalAlign=middle;whiteSpace=wrap;rounded=0;" parent="1" vertex="1">
          <mxGeometry x="1227" y="-4620" width="30" height="30" as="geometry" />
        </mxCell>
        <mxCell id="YVEO-Afh5kTJENKMoZ6W-67" value="(1,1)" style="text;html=1;strokeColor=none;fillColor=none;align=center;verticalAlign=middle;whiteSpace=wrap;rounded=0;" parent="1" vertex="1">
          <mxGeometry x="1342" y="-4540" width="30" height="30" as="geometry" />
        </mxCell>
        <mxCell id="YVEO-Afh5kTJENKMoZ6W-68" value="(1,N)" style="text;html=1;strokeColor=none;fillColor=none;align=center;verticalAlign=middle;whiteSpace=wrap;rounded=0;" parent="1" vertex="1">
          <mxGeometry x="1397" y="-4210" width="30" height="30" as="geometry" />
        </mxCell>
        <mxCell id="YVEO-Afh5kTJENKMoZ6W-69" value="(1,1)" style="text;html=1;strokeColor=none;fillColor=none;align=center;verticalAlign=middle;whiteSpace=wrap;rounded=0;" parent="1" vertex="1">
          <mxGeometry x="1522" y="-4441" width="30" height="30" as="geometry" />
        </mxCell>
        <mxCell id="YVEO-Afh5kTJENKMoZ6W-70" value="(1,1)" style="text;html=1;strokeColor=none;fillColor=none;align=center;verticalAlign=middle;whiteSpace=wrap;rounded=0;" parent="1" vertex="1">
          <mxGeometry x="847" y="-4550" width="30" height="30" as="geometry" />
        </mxCell>
        <mxCell id="YVEO-Afh5kTJENKMoZ6W-71" value="(1,N)" style="text;html=1;strokeColor=none;fillColor=none;align=center;verticalAlign=middle;whiteSpace=wrap;rounded=0;" parent="1" vertex="1">
          <mxGeometry x="1298.5" y="-4240" width="30" height="30" as="geometry" />
        </mxCell>
        <mxCell id="YVEO-Afh5kTJENKMoZ6W-74" value="(1,1)" style="text;html=1;strokeColor=none;fillColor=none;align=center;verticalAlign=middle;whiteSpace=wrap;rounded=0;" parent="1" vertex="1">
          <mxGeometry x="754" y="-4550" width="30" height="30" as="geometry" />
        </mxCell>
        <mxCell id="YVEO-Afh5kTJENKMoZ6W-75" value="(0,1)" style="text;html=1;strokeColor=none;fillColor=none;align=center;verticalAlign=middle;whiteSpace=wrap;rounded=0;" parent="1" vertex="1">
          <mxGeometry x="617" y="-4411" width="30" height="30" as="geometry" />
        </mxCell>
        <mxCell id="YVEO-Afh5kTJENKMoZ6W-76" value="(0,1)" style="text;html=1;strokeColor=none;fillColor=none;align=center;verticalAlign=middle;whiteSpace=wrap;rounded=0;" parent="1" vertex="1">
          <mxGeometry x="809" y="-4414.25" width="30" height="30" as="geometry" />
        </mxCell>
        <mxCell id="YVEO-Afh5kTJENKMoZ6W-77" value="(1,1)" style="text;html=1;strokeColor=none;fillColor=none;align=center;verticalAlign=middle;whiteSpace=wrap;rounded=0;" parent="1" vertex="1">
          <mxGeometry x="1357" y="-4090" width="30" height="30" as="geometry" />
        </mxCell>
        <mxCell id="YVEO-Afh5kTJENKMoZ6W-78" value="(0,1)" style="text;html=1;strokeColor=none;fillColor=none;align=center;verticalAlign=middle;whiteSpace=wrap;rounded=0;" parent="1" vertex="1">
          <mxGeometry x="1222" y="-3966" width="30" height="30" as="geometry" />
        </mxCell>
        <mxCell id="YVEO-Afh5kTJENKMoZ6W-79" value="(0,1)" style="text;html=1;strokeColor=none;fillColor=none;align=center;verticalAlign=middle;whiteSpace=wrap;rounded=0;" parent="1" vertex="1">
          <mxGeometry x="1357" y="-3966" width="30" height="30" as="geometry" />
        </mxCell>
        <mxCell id="YVEO-Afh5kTJENKMoZ6W-80" value="(0,1)" style="text;html=1;strokeColor=none;fillColor=none;align=center;verticalAlign=middle;whiteSpace=wrap;rounded=0;" parent="1" vertex="1">
          <mxGeometry x="1517" y="-3966" width="30" height="30" as="geometry" />
        </mxCell>
        <mxCell id="YVEO-Afh5kTJENKMoZ6W-83" value="(1,N)" style="text;html=1;strokeColor=none;fillColor=none;align=center;verticalAlign=middle;whiteSpace=wrap;rounded=0;" parent="1" vertex="1">
          <mxGeometry x="1484" y="-4180" width="30" height="30" as="geometry" />
        </mxCell>
        <mxCell id="YVEO-Afh5kTJENKMoZ6W-85" value="(1,1)" style="text;html=1;strokeColor=none;fillColor=none;align=center;verticalAlign=middle;whiteSpace=wrap;rounded=0;" parent="1" vertex="1">
          <mxGeometry x="1697" y="-4180" width="30" height="30" as="geometry" />
        </mxCell>
        <mxCell id="2" value="" style="endArrow=none;html=1;entryX=0.5;entryY=1;entryDx=0;entryDy=0;exitX=0.5;exitY=0;exitDx=0;exitDy=0;" parent="1" source="6OBitSWHWfzF9lij0ILw-1" target="6OBitSWHWfzF9lij0ILw-33" edge="1">
          <mxGeometry width="50" height="50" relative="1" as="geometry">
            <mxPoint x="220" y="-4620" as="sourcePoint" />
            <mxPoint x="270" y="-4670" as="targetPoint" />
          </mxGeometry>
        </mxCell>
        <mxCell id="3" value="Coordenadas_zona" style="ellipse;whiteSpace=wrap;html=1;align=center;" parent="1" vertex="1">
          <mxGeometry x="620" y="-4760" width="117" height="40" as="geometry" />
        </mxCell>
        <mxCell id="4" value="Latitud_zona" style="ellipse;whiteSpace=wrap;html=1;align=center;" parent="1" vertex="1">
          <mxGeometry x="547" y="-4850" width="100" height="40" as="geometry" />
        </mxCell>
        <mxCell id="5" value="Longitud_zona" style="ellipse;whiteSpace=wrap;html=1;align=center;" parent="1" vertex="1">
          <mxGeometry x="727" y="-4850" width="100" height="40" as="geometry" />
        </mxCell>
        <mxCell id="6" value="" style="endArrow=none;html=1;rounded=0;entryX=0.5;entryY=1;entryDx=0;entryDy=0;exitX=0;exitY=0;exitDx=0;exitDy=0;" parent="1" source="3" target="4" edge="1">
          <mxGeometry width="50" height="50" relative="1" as="geometry">
            <mxPoint x="364" y="-4760" as="sourcePoint" />
            <mxPoint x="414" y="-4810" as="targetPoint" />
          </mxGeometry>
        </mxCell>
        <mxCell id="7" value="" style="endArrow=none;html=1;rounded=0;entryX=0.5;entryY=1;entryDx=0;entryDy=0;exitX=1;exitY=0;exitDx=0;exitDy=0;" parent="1" source="3" target="5" edge="1">
          <mxGeometry width="50" height="50" relative="1" as="geometry">
            <mxPoint x="604" y="-4770" as="sourcePoint" />
            <mxPoint x="654" y="-4820" as="targetPoint" />
          </mxGeometry>
        </mxCell>
        <mxCell id="8" value="" style="endArrow=none;html=1;entryX=0.5;entryY=1;entryDx=0;entryDy=0;exitX=0.25;exitY=0;exitDx=0;exitDy=0;" parent="1" target="3" edge="1">
          <mxGeometry width="50" height="50" relative="1" as="geometry">
            <mxPoint x="784" y="-4610" as="sourcePoint" />
            <mxPoint x="690" y="-4680" as="targetPoint" />
          </mxGeometry>
        </mxCell>
        <mxCell id="rPpug1DXkQmB0Oz_L-vT-10" value="Zona" style="whiteSpace=wrap;html=1;align=center;" parent="1" vertex="1">
          <mxGeometry x="757" y="-4610" width="120" height="60" as="geometry" />
        </mxCell>
        <mxCell id="rPpug1DXkQmB0Oz_L-vT-12" value="precio" style="ellipse;whiteSpace=wrap;html=1;align=center;" parent="1" vertex="1">
          <mxGeometry x="1197" y="-4188" width="74.5" height="40" as="geometry" />
        </mxCell>
        <mxCell id="rPpug1DXkQmB0Oz_L-vT-16" value="stock" style="ellipse;whiteSpace=wrap;html=1;align=center;" parent="1" vertex="1">
          <mxGeometry x="1137" y="-4128" width="74.5" height="40" as="geometry" />
        </mxCell>
        <mxCell id="rPpug1DXkQmB0Oz_L-vT-18" value="nombre_producto" style="ellipse;whiteSpace=wrap;html=1;align=center;fontStyle=4;" parent="1" vertex="1">
          <mxGeometry x="1190" y="-4060" width="108.5" height="40" as="geometry" />
        </mxCell>
        <mxCell id="rPpug1DXkQmB0Oz_L-vT-19" value="" style="endArrow=none;html=1;rounded=0;entryX=0;entryY=0.25;entryDx=0;entryDy=0;exitX=1;exitY=0.5;exitDx=0;exitDy=0;" parent="1" source="rPpug1DXkQmB0Oz_L-vT-12" target="6OBitSWHWfzF9lij0ILw-58" edge="1">
          <mxGeometry width="50" height="50" relative="1" as="geometry">
            <mxPoint x="1260" y="-4080" as="sourcePoint" />
            <mxPoint x="1310" y="-4130" as="targetPoint" />
          </mxGeometry>
        </mxCell>
        <mxCell id="rPpug1DXkQmB0Oz_L-vT-20" value="" style="endArrow=none;html=1;rounded=0;exitX=1;exitY=0.5;exitDx=0;exitDy=0;entryX=0;entryY=0.5;entryDx=0;entryDy=0;" parent="1" source="rPpug1DXkQmB0Oz_L-vT-16" target="6OBitSWHWfzF9lij0ILw-58" edge="1">
          <mxGeometry width="50" height="50" relative="1" as="geometry">
            <mxPoint x="1218.4999999999968" y="-4123" as="sourcePoint" />
            <mxPoint x="1287" y="-4135" as="targetPoint" />
          </mxGeometry>
        </mxCell>
        <mxCell id="rPpug1DXkQmB0Oz_L-vT-21" value="" style="endArrow=none;html=1;rounded=0;entryX=0;entryY=0.75;entryDx=0;entryDy=0;exitX=0.5;exitY=0;exitDx=0;exitDy=0;" parent="1" source="rPpug1DXkQmB0Oz_L-vT-18" target="6OBitSWHWfzF9lij0ILw-58" edge="1">
          <mxGeometry width="50" height="50" relative="1" as="geometry">
            <mxPoint x="1120" y="-3970" as="sourcePoint" />
            <mxPoint x="1170" y="-4020" as="targetPoint" />
          </mxGeometry>
        </mxCell>
      </root>
    </mxGraphModel>
  </diagram>
</mxfile>
